<?xml version="1.0" standalone="no"?>
<!DOCTYPE svg PUBLIC "-//W3C//DTD SVG 20010904//EN"
 "http://www.w3.org/TR/2001/REC-SVG-20010904/DTD/svg10.dtd">
<svg version="1.0" xmlns="http://www.w3.org/2000/svg"
 width="338.000000pt" height="393.000000pt" viewBox="0 0 338.000000 393.000000"
 preserveAspectRatio="xMidYMid meet">

<g transform="translate(0.000000,393.000000) scale(0.100000,-0.100000)"
fill="#000000" stroke="none">
<path d="M1350 3185 c-256 -61 -408 -190 -497 -422 -68 -176 -67 -353 4 -536
43 -114 87 -181 161 -247 175 -158 387 -248 617 -264 373 -26 737 148 930 444
107 164 152 277 181 450 25 150 11 314 -38 466 l-23 69 -6 -145 c-5 -125 -9
-155 -33 -220 -67 -180 -182 -336 -296 -402 -74 -43 -224 -97 -302 -109 -101
-16 -278 -6 -348 20 -189 69 -228 91 -296 162 -93 99 -124 177 -124 309 0 185
90 327 248 391 40 16 80 29 88 29 8 0 12 5 9 10 -9 14 -209 11 -275 -5z"/>
</g>
</svg>
