<?xml version="1.0" standalone="no"?>
<!DOCTYPE svg PUBLIC "-//W3C//DTD SVG 20010904//EN"
 "http://www.w3.org/TR/2001/REC-SVG-20010904/DTD/svg10.dtd">
<svg version="1.0" xmlns="http://www.w3.org/2000/svg"
 width="316.000000pt" height="181.000000pt" viewBox="0 0 316.000000 181.000000"
 preserveAspectRatio="xMidYMid meet">

<g transform="translate(0.000000,181.000000) scale(0.100000,-0.100000)"
fill="#000000" stroke="none">
<path d="M2064 1454 c-4 -20 -10 -31 -13 -25 -9 13 -48 3 -55 -15 -3 -7 3 -18
14 -24 21 -11 17 -40 -6 -40 -8 0 -14 -4 -14 -10 0 -15 16 -12 34 6 21 20 20
41 -1 53 -23 12 -11 25 16 16 12 -3 21 -15 21 -25 0 -10 5 -22 10 -25 6 -4 10
5 10 20 0 15 4 24 10 20 6 -3 10 -1 10 4 0 6 -5 11 -11 11 -7 0 -10 14 -7 35
5 46 -9 45 -18 -1z"/>
<path d="M1536 1435 c-42 -22 -55 -44 -56 -92 0 -34 5 -46 31 -67 33 -28 92
-35 120 -13 46 35 52 103 12 146 -35 38 -69 46 -107 26z"/>
<path d="M1730 1400 c0 -27 4 -50 9 -50 4 0 6 11 3 25 -5 31 4 32 28 3 15 -19
20 -20 34 -9 10 8 16 27 15 50 l-1 36 -8 -33 c-4 -18 -11 -36 -15 -40 -8 -8
-44 37 -45 56 0 6 -4 12 -10 12 -5 0 -10 -22 -10 -50z"/>
<path d="M2274 1425 c-19 -14 -19 -15 5 -33 l24 -19 -24 -16 c-12 -9 -20 -20
-16 -23 9 -9 47 25 47 43 0 7 -7 16 -15 19 -22 9 -18 24 5 24 11 0 20 5 20 10
0 15 -23 12 -46 -5z"/>
<path d="M1942 1418 c-7 -7 -12 -18 -12 -25 0 -7 -7 -13 -15 -13 -8 0 -15 7
-15 16 0 13 -4 11 -18 -6 -20 -24 -45 -20 -35 5 3 8 0 15 -7 15 -6 0 -10 -10
-8 -22 3 -21 9 -23 80 -26 51 -2 79 1 84 9 5 9 -1 10 -22 5 -27 -7 -28 -7 -11
12 9 10 17 24 17 30 0 16 -23 15 -38 0z"/>
<path d="M2205 1418 c-11 -7 -37 -11 -57 -11 -31 1 -38 -2 -38 -18 0 -23 6
-24 26 -4 22 22 47 19 39 -4 -5 -17 0 -19 45 -19 28 0 53 4 56 9 3 5 -4 9 -15
9 -10 0 -21 6 -24 13 -3 8 -11 6 -27 -8 -16 -14 -22 -16 -18 -5 2 8 14 19 26
25 12 5 22 13 22 17 0 11 -12 9 -35 -4z"/>
<path d="M470 1330 c-27 -27 -23 -57 11 -83 30 -22 60 -13 80 24 9 17 7 27 -8
48 -26 34 -56 38 -83 11z"/>
<path d="M1874 1302 c-99 -37 -168 -100 -206 -189 -12 -28 -13 -28 -16 20 l-3
47 -75 0 -74 0 0 -255 0 -255 75 0 74 0 3 118 3 117 21 -46 c29 -63 88 -120
160 -155 54 -26 68 -29 164 -29 95 0 110 3 160 28 57 30 95 60 111 89 8 14 0
23 -43 48 -29 16 -59 30 -66 30 -7 0 -30 -12 -49 -27 -32 -25 -45 -28 -112
-28 -58 0 -84 5 -109 20 -80 49 -113 155 -73 237 56 116 205 142 323 56 18
-13 69 5 118 42 l25 19 -41 39 c-65 61 -124 84 -229 89 -71 3 -101 0 -141 -15z"/>
<path d="M1000 1235 l0 -75 59 0 c98 0 91 20 91 -251 l0 -239 80 0 80 0 2 243
3 242 78 3 77 3 0 74 0 75 -235 0 -235 0 0 -75z"/>
<path d="M350 1202 c-40 -12 -53 -67 -22 -95 39 -35 92 -10 92 42 0 38 -35 64
-70 53z"/>
<path d="M474 1185 c-13 -13 -24 -31 -24 -40 0 -21 36 -55 60 -55 22 0 60 33
60 53 0 21 -28 54 -51 60 -14 4 -29 -2 -45 -18z"/>
<path d="M186 1047 c-21 -16 -24 -60 -6 -82 17 -21 63 -19 83 3 47 52 -21 120
-77 79z"/>
<path d="M463 1034 c-15 -24 -15 -29 -2 -53 11 -20 22 -26 49 -26 27 0 38 6
49 26 13 24 13 29 -2 53 -12 18 -26 26 -47 26 -21 0 -35 -8 -47 -26z"/>
<path d="M618 1049 c-21 -12 -24 -69 -6 -87 18 -18 63 -14 81 6 46 50 -16 116
-75 81z"/>
<path d="M757 1042 c-34 -38 -8 -92 44 -92 32 0 49 17 49 50 0 52 -60 78 -93
42z"/>
<path d="M332 904 c-57 -39 6 -127 64 -90 29 20 32 65 6 89 -23 21 -41 21 -70
1z"/>
<path d="M762 904 c-26 -18 -30 -65 -7 -84 8 -7 26 -12 40 -12 35 0 55 19 55
53 0 27 -30 59 -55 59 -6 0 -21 -7 -33 -16z"/>
<path d="M899 899 c-26 -26 -21 -57 14 -82 l27 -21 28 21 c15 11 28 29 30 41
4 25 -30 62 -58 62 -11 0 -29 -9 -41 -21z"/>
<path d="M199 766 c-48 -23 -28 -106 26 -106 44 0 70 57 43 92 -19 23 -42 28
-69 14z"/>
<path d="M321 756 c-33 -40 23 -117 66 -90 29 18 38 41 27 71 -7 23 -16 29
-45 31 -23 2 -40 -2 -48 -12z"/>
<path d="M466 754 c-22 -21 -20 -50 4 -74 32 -32 75 -24 91 18 21 54 -53 98
-95 56z"/>
<path d="M615 750 c-35 -39 7 -99 61 -86 14 4 30 17 36 31 25 56 -54 102 -97
55z"/>
<path d="M326 614 c-33 -32 -9 -94 35 -94 36 0 59 19 59 50 0 35 -23 60 -55
60 -13 0 -31 -7 -39 -16z"/>
<path d="M466 608 c-21 -29 -20 -51 2 -71 39 -36 95 -13 95 38 0 14 -6 32 -13
40 -19 23 -66 19 -84 -7z"/>
<path d="M613 604 c-15 -24 -15 -29 -2 -53 11 -20 22 -26 49 -26 27 0 38 6 49
26 13 24 13 29 -2 53 -12 18 -26 26 -47 26 -21 0 -35 -8 -47 -26z"/>
<path d="M1150 559 c0 -5 5 -7 10 -4 6 3 10 8 10 11 0 2 -4 4 -10 4 -5 0 -10
-5 -10 -11z"/>
<path d="M1267 563 c-4 -3 -6 -22 -6 -42 1 -20 3 -28 6 -18 5 18 5 18 25 0 21
-18 21 -18 7 5 -8 12 -18 22 -23 22 -4 0 -6 9 -3 20 5 21 4 24 -6 13z"/>
<path d="M1347 552 c-10 -10 -17 -23 -17 -28 0 -5 5 -1 11 9 6 10 20 22 32 27
15 6 17 9 6 9 -9 1 -23 -7 -32 -17z"/>
<path d="M1507 563 c-4 -3 -6 -22 -6 -42 1 -20 3 -28 6 -18 5 18 5 18 25 0 21
-18 21 -18 7 5 -8 12 -18 22 -23 22 -4 0 -6 9 -3 20 5 21 4 24 -6 13z"/>
<path d="M1685 560 c4 -6 11 -8 16 -5 14 9 11 15 -7 15 -8 0 -12 -5 -9 -10z"/>
<path d="M1748 563 c6 -2 18 -2 25 0 6 3 1 5 -13 5 -14 0 -19 -2 -12 -5z"/>
<path d="M1812 558 c-28 -28 -7 -79 33 -77 17 1 16 2 -5 8 -19 5 -25 13 -25
36 0 23 6 31 25 36 21 6 22 7 5 8 -12 1 -26 -4 -33 -11z"/>
<path d="M2002 558 c-7 -7 -12 -17 -12 -22 0 -6 5 -3 11 7 12 20 39 22 59 5
12 -11 12 -10 1 5 -16 20 -42 22 -59 5z"/>
<path d="M2162 558 c-14 -14 -16 -54 -4 -62 5 -3 6 8 4 24 -5 35 19 50 49 31
11 -6 19 -7 19 -2 0 20 -50 27 -68 9z"/>
<path d="M2269 553 c-13 -16 -12 -17 3 -4 10 7 27 11 38 8 11 -3 18 -1 14 4
-9 15 -41 10 -55 -8z"/>
<path d="M2485 559 c-4 -5 0 -18 9 -28 19 -21 20 -38 4 -44 -10 -4 -10 -6 0
-6 22 -2 25 29 6 50 -16 17 -16 22 -4 29 9 6 10 10 3 10 -6 0 -15 -5 -18 -11z"/>
<path d="M1543 545 c0 -8 4 -12 9 -9 5 3 6 10 3 15 -9 13 -12 11 -12 -6z"/>
<path d="M1901 524 c1 -36 2 -37 8 -9 l6 29 23 -28 c12 -16 25 -26 29 -23 3 4
4 8 2 10 -2 1 -19 15 -37 31 l-32 30 1 -40z"/>
<path d="M1962 540 c0 -14 2 -19 5 -12 2 6 2 18 0 25 -3 6 -5 1 -5 -13z"/>
<path d="M2363 525 c0 -22 2 -30 4 -17 2 12 2 30 0 40 -3 9 -5 -1 -4 -23z"/>
<path d="M2416 553 c-11 -11 -7 -20 9 -20 8 0 15 4 15 8 0 11 -16 20 -24 12z"/>
<path d="M1990 515 c-1 -33 50 -46 71 -17 11 14 11 15 -1 5 -20 -18 -47 -16
-59 5 -6 9 -11 12 -11 7z"/>
<path d="M2327 505 c-8 -18 -38 -20 -57 -2 -12 10 -12 9 -1 -5 7 -10 21 -18
31 -18 18 0 47 27 38 36 -3 3 -8 -2 -11 -11z"/>
<path d="M2413 513 c9 -2 23 -2 30 0 6 3 -1 5 -18 5 -16 0 -22 -2 -12 -5z"/>
<path d="M1340 501 c0 -15 49 -26 62 -13 8 8 5 9 -11 5 -11 -3 -28 0 -36 7
-10 8 -15 9 -15 1z"/>
<path d="M2200 494 c-17 -9 -20 -14 -9 -14 9 0 22 7 29 15 15 18 13 18 -20 -1z"/>
<path d="M1200 489 c0 -5 9 -9 20 -9 11 0 20 2 20 4 0 2 -9 6 -20 9 -11 3 -20
1 -20 -4z"/>
<path d="M1440 489 c0 -5 9 -9 20 -9 11 0 20 2 20 4 0 2 -9 6 -20 9 -11 3 -20
1 -20 -4z"/>
<path d="M2100 490 c0 -6 7 -10 15 -10 8 0 15 2 15 4 0 2 -7 6 -15 10 -8 3
-15 1 -15 -4z"/>
<path d="M470 470 c-32 -32 -24 -75 17 -91 47 -18 94 31 72 74 -23 42 -57 49
-89 17z"/>
<path d="M620 470 c-11 -11 -20 -29 -20 -39 0 -19 43 -61 62 -61 15 0 58 48
58 65 0 21 -36 55 -60 55 -11 0 -29 -9 -40 -20z"/>
<path d="M1748 483 c6 -2 18 -2 25 0 6 3 1 5 -13 5 -14 0 -19 -2 -12 -5z"/>
<path d="M1178 429 c-30 -17 -17 -80 17 -79 5 0 2 5 -7 11 -26 14 -23 54 5 67
12 6 18 11 12 11 -5 0 -18 -4 -27 -10z"/>
<path d="M2177 433 c-4 -3 -6 -25 -6 -47 1 -23 4 -31 6 -19 2 12 12 24 21 26
15 4 14 5 -2 6 -13 1 -17 6 -13 21 5 21 4 24 -6 13z"/>
<path d="M2640 436 c0 -2 9 -6 20 -9 11 -3 18 -1 14 4 -5 9 -34 13 -34 5z"/>
<path d="M2749 423 c-12 -16 -12 -17 1 -7 8 6 22 14 30 17 13 5 12 6 -1 6 -9
1 -23 -7 -30 -16z"/>
<path d="M972 418 c-27 -27 -2 -74 35 -65 14 4 13 5 -5 6 -28 1 -39 27 -23 52
13 22 10 24 -7 7z"/>
<path d="M1032 408 c7 -15 15 -23 17 -17 2 6 -4 18 -13 27 -15 15 -15 15 -4
-10z"/>
<path d="M1072 388 c1 -38 2 -39 5 -10 4 30 6 32 21 20 12 -9 12 -7 -2 10 -11
12 -21 22 -23 22 -1 0 -2 -19 -1 -42z"/>
<path d="M1132 410 c0 -14 2 -19 5 -12 2 6 2 18 0 25 -3 6 -5 1 -5 -13z"/>
<path d="M1272 395 c0 -31 1 -35 8 -20 5 11 9 16 9 11 1 -5 8 -3 16 4 17 14
20 40 5 40 -5 0 -7 -7 -4 -15 4 -9 0 -15 -9 -15 -9 0 -18 8 -20 18 -3 9 -5 -1
-5 -23z"/>
<path d="M1340 392 c0 -39 2 -42 28 -41 22 1 23 2 5 6 -17 3 -21 11 -21 34 1
16 -2 32 -5 36 -4 3 -7 -12 -7 -35z"/>
<path d="M1475 419 c-4 -6 -5 -12 -2 -15 2 -3 7 2 10 11 7 17 1 20 -8 4z"/>
<path d="M1956 421 c-3 -5 1 -11 9 -14 9 -4 12 -1 8 9 -6 16 -10 17 -17 5z"/>
<path d="M2051 414 c0 -11 3 -14 6 -6 3 7 2 16 -1 19 -3 4 -6 -2 -5 -13z"/>
<path d="M2080 428 c0 -9 62 -70 66 -65 2 2 -12 19 -31 37 -19 19 -35 31 -35
28z"/>
<path d="M2235 419 c-4 -6 -5 -12 -2 -15 2 -3 7 2 10 11 7 17 1 20 -8 4z"/>
<path d="M2376 417 c3 -10 9 -15 12 -12 3 3 0 11 -7 18 -10 9 -11 8 -5 -6z"/>
<path d="M2476 415 c-3 -8 -1 -15 4 -15 6 0 10 7 10 15 0 8 -2 15 -4 15 -2 0
-6 -7 -10 -15z"/>
<path d="M2547 417 c-3 -8 1 -14 8 -14 7 0 11 6 8 14 -3 7 -6 13 -8 13 -2 0
-5 -6 -8 -13z"/>
<path d="M2615 419 c-4 -6 -5 -12 -2 -15 2 -3 7 2 10 11 7 17 1 20 -8 4z"/>
<path d="M2713 395 c0 -22 2 -30 4 -17 2 12 2 30 0 40 -3 9 -5 -1 -4 -23z"/>
<path d="M2869 398 c19 -21 37 -36 39 -33 3 3 3 6 1 8 -2 1 -20 15 -39 32
l-35 30 34 -37z"/>
<path d="M2420 411 c0 -6 4 -13 10 -16 6 -3 7 1 4 9 -7 18 -14 21 -14 7z"/>
<path d="M861 395 c-1 -22 16 -45 33 -45 5 0 3 6 -6 13 -9 6 -18 21 -21 32 -5
20 -5 20 -6 0z"/>
<path d="M1423 394 c21 -26 21 -31 0 -37 -16 -4 -16 -5 -1 -6 28 -2 32 20 7
43 -22 20 -22 20 -6 0z"/>
<path d="M1788 393 c6 -2 18 -2 25 0 6 3 1 5 -13 5 -14 0 -19 -2 -12 -5z"/>
<path d="M1940 389 c0 -5 9 -9 20 -9 10 0 24 -8 29 -17 6 -10 10 -13 11 -8 0
6 -4 15 -8 21 -9 14 -52 25 -52 13z"/>
<path d="M2082 380 c0 -14 2 -19 5 -12 2 6 2 18 0 25 -3 6 -5 1 -5 -13z"/>
<path d="M2355 380 c20 -22 34 -28 16 -7 -6 8 -8 17 -4 20 3 4 -2 7 -12 7 -17
0 -17 -1 0 -20z"/>
<path d="M1470 384 c0 -18 27 -36 47 -31 14 4 14 5 -4 6 -12 0 -27 9 -32 19
-6 9 -11 12 -11 6z"/>
<path d="M2543 383 c9 -2 23 -2 30 0 6 3 -1 5 -18 5 -16 0 -22 -2 -12 -5z"/>
<path d="M1120 370 c0 -5 5 -10 10 -10 6 0 10 5 10 10 0 6 -4 10 -10 10 -5 0
-10 -4 -10 -10z"/>
<path d="M1734 371 c-5 -5 -18 -11 -29 -14 l-20 -5 20 -1 c22 -1 52 15 44 23
-3 3 -10 2 -15 -3z"/>
<path d="M2239 367 c7 -10 21 -17 31 -17 10 0 24 7 31 17 13 15 12 15 -8 2
-20 -12 -26 -12 -45 0 -21 13 -22 13 -9 -2z"/>
<path d="M2619 368 c7 -10 25 -17 40 -17 l26 2 -25 4 c-14 3 -32 10 -40 16
-13 11 -13 10 -1 -5z"/>
<path d="M2749 367 c7 -10 21 -17 31 -17 10 0 24 7 31 17 13 15 12 15 -8 2
-20 -12 -26 -12 -45 0 -21 13 -22 13 -9 -2z"/>
<path d="M920 360 c-9 -6 -10 -10 -3 -10 6 0 15 5 18 10 8 12 4 12 -15 0z"/>
<path d="M1220 360 c-9 -6 -10 -10 -3 -10 6 0 15 5 18 10 8 12 4 12 -15 0z"/>
<path d="M1788 353 c6 -2 18 -2 25 0 6 3 1 5 -13 5 -14 0 -19 -2 -12 -5z"/>
<path d="M1888 353 c7 -3 16 -2 19 1 4 3 -2 6 -13 5 -11 0 -14 -3 -6 -6z"/>
<path d="M626 329 c-14 -11 -26 -29 -26 -40 0 -25 35 -59 60 -59 24 0 60 34
60 55 0 17 -43 65 -58 65 -5 0 -21 -9 -36 -21z"/>
<path d="M2590 300 c8 -5 20 -10 25 -10 6 0 3 5 -5 10 -8 5 -19 10 -25 10 -5
0 -3 -5 5 -10z"/>
<path d="M2770 306 c0 -2 7 -7 16 -10 8 -3 12 -2 9 4 -6 10 -25 14 -25 6z"/>
<path d="M3123 295 c-3 -9 2 -24 12 -35 10 -11 14 -24 10 -32 -6 -10 -5 -10 5
-1 11 10 10 16 -4 32 -10 11 -16 27 -13 36 4 8 4 15 1 15 -2 0 -7 -7 -11 -15z"/>
<path d="M920 292 c0 -4 10 -13 23 -21 22 -14 22 -14 3 8 -20 22 -26 25 -26
13z"/>
<path d="M1037 287 c-3 -8 1 -14 8 -14 7 0 11 6 8 14 -6 16 -10 16 -16 0z"/>
<path d="M1112 288 c-22 -22 -7 -69 23 -68 5 0 2 5 -7 11 -21 12 -23 40 -6 57
7 7 10 12 7 12 -3 0 -10 -5 -17 -12z"/>
<path d="M1203 260 c0 -25 2 -35 4 -22 2 12 2 32 0 45 -2 12 -4 2 -4 -23z"/>
<path d="M1341 287 c0 -11 59 -64 59 -54 0 3 -13 19 -30 35 -16 17 -30 25 -29
19z"/>
<path d="M1457 293 c-11 -11 -8 -20 7 -20 8 0 12 6 9 14 -6 15 -7 15 -16 6z"/>
<path d="M1522 263 c-2 -39 0 -43 21 -42 16 1 17 3 5 6 -11 3 -18 17 -21 41
l-4 37 -1 -42z"/>
<path d="M1792 263 c-2 -35 1 -43 16 -43 11 0 13 3 5 8 -6 4 -13 23 -16 42 -4
33 -4 33 -5 -7z"/>
<path d="M1870 290 c0 -5 5 -10 11 -10 5 0 7 5 4 10 -3 6 -8 10 -11 10 -2 0
-4 -4 -4 -10z"/>
<path d="M2035 289 c-4 -6 -5 -12 -2 -15 2 -3 7 2 10 11 7 17 1 20 -8 4z"/>
<path d="M2135 289 c-4 -6 -5 -12 -2 -15 2 -3 7 2 10 11 7 17 1 20 -8 4z"/>
<path d="M2196 287 c3 -10 9 -15 12 -12 3 3 0 11 -7 18 -10 9 -11 8 -5 -6z"/>
<path d="M2552 288 c-22 -22 -7 -69 23 -68 5 0 2 5 -7 11 -21 12 -23 40 -6 57
7 7 10 12 7 12 -3 0 -10 -5 -17 -12z"/>
<path d="M2667 287 c-3 -8 1 -14 9 -14 16 0 19 13 5 21 -5 3 -11 0 -14 -7z"/>
<path d="M2742 288 c-17 -17 -15 -43 5 -59 15 -13 15 -12 2 9 -11 18 -11 26
-1 42 14 23 12 26 -6 8z"/>
<path d="M2833 260 c0 -25 2 -35 4 -22 2 12 2 32 0 45 -2 12 -4 2 -4 -23z"/>
<path d="M2865 289 c-4 -6 -5 -12 -2 -15 2 -3 7 2 10 11 7 17 1 20 -8 4z"/>
<path d="M2970 291 c0 -4 14 -20 30 -36 17 -16 30 -26 30 -23 0 4 -13 20 -30
36 -16 17 -30 27 -30 23z"/>
<path d="M3022 280 c0 -14 2 -19 5 -12 2 6 2 18 0 25 -3 6 -5 1 -5 -13z"/>
<path d="M1710 275 c-7 -9 -8 -15 -2 -15 5 0 12 7 16 15 3 8 4 15 2 15 -2 0
-9 -7 -16 -15z"/>
<path d="M1945 270 c10 -11 20 -20 23 -20 3 0 -3 9 -13 20 -10 11 -20 20 -23
20 -3 0 3 -9 13 -20z"/>
<path d="M2240 280 c0 -5 5 -10 11 -10 5 0 7 5 4 10 -3 6 -8 10 -11 10 -2 0
-4 -4 -4 -10z"/>
<path d="M2300 283 c0 -5 5 -15 10 -23 8 -12 10 -11 10 8 0 12 -4 22 -10 22
-5 0 -10 -3 -10 -7z"/>
<path d="M922 245 c0 -16 2 -22 5 -12 2 9 2 23 0 30 -3 6 -5 -1 -5 -18z"/>
<path d="M1856 253 c-6 -14 -5 -15 5 -6 7 7 10 15 7 18 -3 3 -9 -2 -12 -12z"/>
<path d="M1890 264 c0 -6 7 -19 16 -30 14 -18 14 -18 3 6 -14 31 -19 36 -19
24z"/>
<path d="M2464 251 c20 -22 26 -25 26 -13 0 4 -10 13 -22 21 -23 14 -23 14 -4
-8z"/>
<path d="M3068 263 c6 -2 18 -2 25 0 6 3 1 5 -13 5 -14 0 -19 -2 -12 -5z"/>
<path d="M977 253 c-10 -9 -9 -23 1 -23 5 0 9 7 9 15 0 17 -1 18 -10 8z"/>
<path d="M1016 244 c-9 -24 -2 -26 12 -4 7 11 8 20 3 20 -5 0 -12 -7 -15 -16z"/>
<path d="M1050 256 c0 -2 7 -9 15 -16 13 -11 14 -10 9 4 -5 14 -24 23 -24 12z"/>
<path d="M1482 240 c7 -10 14 -18 15 -16 6 6 -9 36 -18 36 -5 0 -4 -9 3 -20z"/>
<path d="M2646 244 c-9 -24 -2 -26 12 -4 7 11 8 20 3 20 -5 0 -12 -7 -15 -16z"/>
<path d="M2680 256 c0 -2 7 -9 15 -16 13 -11 14 -10 9 4 -5 14 -24 23 -24 12z"/>
<path d="M1230 246 c0 -2 8 -10 18 -17 15 -13 16 -12 3 4 -13 16 -21 21 -21
13z"/>
<path d="M2030 246 c0 -2 8 -10 18 -17 15 -13 16 -12 3 4 -13 16 -21 21 -21
13z"/>
<path d="M1290 230 c-9 -6 -10 -10 -3 -10 6 0 15 5 18 10 8 12 4 12 -15 0z"/>
<path d="M1955 230 c-16 -7 -17 -9 -3 -9 9 -1 20 4 23 9 7 11 7 11 -20 0z"/>
<path d="M3068 223 c6 -2 18 -2 25 0 6 3 1 5 -13 5 -14 0 -19 -2 -12 -5z"/>
</g>
</svg>
